<svg xmlns="http://www.w3.org/2000/svg" viewBox="0 0 1200 630" width="1200" height="630">
  <rect width="1200" height="630" fill="#0E1217"/>
  <rect width="1200" height="630" fill="url(#g)"/>
  <defs><radialGradient id="g" cx="50%" cy="34%" r="72%">
    <stop offset="0%" stop-color="#0A5238" stop-opacity="0.55"/>
    <stop offset="100%" stop-color="#0E1217" stop-opacity="0"/>
  </radialGradient></defs>
  <g transform="translate(301.6 123.8) scale(0.6)">
  <g transform="translate(-21.6 90) scale(1.85)" fill="#2BD18C">
    <polygon points="50,40 84,70 84,83 50,53 16,83 16,70" opacity="0.34"/>
    <polygon points="50,10 84,40 84,53 50,23 16,53 16,40"/>
  </g>
  <g transform="translate(169.0 0)">
    <path d="M42.022668481149594 251.80881226078782Q31.694327950754086 251.80881226078782 23.64180374170246 248.3411400915429Q15.589279532650835 244.873467922298 10.959823429766402 237.9328119159254Q6.330367326881969 230.99215590955282 6.330367326881969 220.61802077296306Q6.330367326881969 211.75169348716736 9.584827721300826 205.87702673674357Q12.839288115719683 200.0023599863198 18.484699070722854 196.41600215436483Q24.130110025726026 192.82964432240988 31.444893002844765 190.9614880085428Q38.759675979963504 189.09333169467573 46.80436694652599 188.32769811160688Q56.24752557305328 187.38063323507959 61.882406831136905 186.5183359981529Q67.51728808922053 185.65603876122623 70.00199216654437 183.96051293620985Q72.48669624386821 182.26498711119348 72.48669624386821 178.8936523200391V178.27341687698208Q72.48669624386821 174.26486957083398 70.46941804946982 171.29421317586093Q68.45213985507144 168.32355678088788 64.68363845415297 166.66032773264305Q60.9151370532345 164.99709868439822 55.5762960917491 164.99709868439822Q50.182120323734125 164.99709868439822 46.106756330118515 166.68278342494887Q42.031392336502904 168.3684681654995 39.61002129381086 171.3499538898759Q37.188650251118816 174.3314396142523 36.62310147337848 178.24249982804758L9.598124504555017 177.2515741580719Q10.758735061608604 166.82084393396508 16.596628786282963 159.2818118921059Q22.434522510957322 151.74277985024673 32.48862683904008 147.64264279565396Q42.54273116712284 143.54250574106118 56.25290834977932 143.54250574106118Q66.42469120051828 143.54250574106118 74.70719981211005 145.88375174971588Q82.98970842370181 148.2249977583706 88.89507710955513 152.78618645606912Q94.80044579540845 157.34737515376764 97.95322656682401 163.99700611782464Q101.10600733823958 170.64663708188164 101.10600733823958 179.27339041307278V250.0H73.06741249594779V235.31987380993087H72.55004560975067Q69.86257982280222 240.35910046113713 65.74822706006671 244.06678915038356Q61.633874297331204 247.77447783962998 55.80182504672848 249.7916450502089Q49.96977579612576 251.80881226078782 42.022668481149594 251.80881226078782ZM50.02591872253106 231.72155892862065Q56.96072495011322 231.72155892862065 62.056375265456154 229.12255465998896Q67.15202558079909 226.52355039135728 69.92482537079923 222.07470405119238Q72.69762516079936 217.6258577110275 72.69762516079936 212.01079440143076V201.3279486895044Q71.4356994634727 202.04757833489566 69.25272727057745 202.70730882893986Q67.0697550776822 203.36703932298406 64.23083919307828 203.95211553586705Q61.39192330847436 204.53719174875005 58.19754105814354 205.06812047970016Q55.003158807812724 205.59904921065026 51.74163496521942 206.09058558948163Q46.729002833671984 206.81910336024885 42.705076098718564 208.4626695514089Q38.681149363765144 210.10623574256897 36.333454251507646 212.85767871140706Q33.98575913925015 215.60912168024515 33.98575913925015 219.7917040586617Q33.98575913925015 223.55347657212405 36.00217109942605 226.23493701230473Q38.01858305960195 228.9163974524854 41.62084829840751 230.31897819055303Q45.22311353721307 231.72155892862065 50.02591872253106 231.72155892862065ZM114.51877212547697 250.0V145.52947282791138H142.39980673827813V163.42915868735872H142.88202095066663Q145.7457376722159 153.93246662606543 152.02179586939747 149.2895471454176Q158.29785406657902 144.64662766476977 168.2687559137703 144.64662766476977Q170.76613688567886 144.64662766476977 172.9905266176429 144.77336680902226Q175.21491634960694 144.90010595327476 176.98963058118534 145.0737196206319V169.95274400687777Q175.34751272341236 169.69905042642495 171.73838418856758 169.44915020467306Q168.1292556537228 169.19924998292117 164.55525601030968 169.19924998292117Q158.49578523720265 169.19924998292117 153.67740684813907 171.93601524850237Q148.8590284590755 174.67278051408357 146.11552363675582 179.91726011077844Q143.37201881443616 185.16173970747332 143.37201881443616 192.72709155120538V250.0ZM230.1652978661732 252.29687547689537Q214.48240137140965 252.29687547689537 202.752073705582 245.43521785744815Q191.02174603975436 238.57356023800094 184.53977531224518 226.31932544718438Q178.057804584736 214.06509065636783 178.057804584736 197.9396574497514Q178.057804584736 181.74933338159462 184.53977531224518 169.45516628020414Q191.02174603975436 157.16099917881365 202.752073705582 150.2818712591761Q214.48240137140965 143.40274333953857 230.1652978661732 143.40274333953857Q240.23554754274664 143.40274333953857 248.7276868821791 146.2987761497061Q257.2198262216116 149.19480895987363 263.6047819854721 154.49143409714452Q269.98973774933256 159.7880592344154 273.8738484385831 167.08868771765992Q277.7579591278336 174.38931620090443 278.65316510249977 183.27446174589568L250.92488074331777 184.4081740375259Q250.28554308445018 180.38558304288017 248.63740646868246 177.12254160633165Q246.98926985291473 173.85950016978313 244.3952699306319 171.50933194170648Q241.8012700083491 169.15916371362982 238.33736097838846 167.88994747421384Q234.87345194842783 166.62073123479786 230.5637184384832 166.62073123479786Q223.19164776816615 166.62073123479786 217.97955203072343 170.4752743247809Q212.7674562932807 174.32981741476397 210.01807123446633 181.3524671797495Q207.26868617565196 188.37511694473505 207.26868617565196 197.91622018819908Q207.26868617565196 207.34968376127654 210.01807123446633 214.36462664569262Q212.7674562932807 221.3795695301087 217.98258852976141 225.2292285558724Q223.19772076624213 229.07888758163608 230.5637184384832 229.07888758163608Q234.8834353688144 229.07888758163608 238.32238721878093 227.81325411779108Q241.76133906874747 226.54762065394607 244.30130052604363 224.18160969009477Q246.8412619833398 221.81559872624348 248.48939859910752 218.45652860411064Q250.13753521487524 215.0974584819778 250.86997604410863 210.96722781694552L278.693098784046 212.08922147779958Q277.9719306235929 220.95960855513113 274.14434862183407 228.30244588876667Q270.3167666200752 235.6452832224022 263.8947013619909 241.03207772986934Q257.47263610390655 246.41887223733647 248.9031336310145 249.35787385711592Q240.33363115812244 252.29687547689537 230.1652978661732 252.29687547689537ZM315.94623756443616 191.39090204262175V250.0H287.09299087547697V104.4921875H315.8290512566746V172.46625900297659H311.14222490812244Q315.9232648614998 158.77418029303954 324.9149112110681 151.15834301705036Q333.90655756063643 143.54250574106118 347.9088718899002 143.54250574106118Q359.0097643145564 143.54250574106118 367.20357406209223 148.33546549070888Q375.3973838096281 153.1284252403566 379.9090160134947 162.2388854621022Q384.4206482173613 171.3493456838478 384.4206482173613 184.33201599109452V250.0H355.55741810801555V189.57664334775473Q355.55741810801555 179.24818563478766 350.54422867303947 173.77080452461087Q345.5310392380634 168.29342341443407 336.40246617812954 168.29342341443407Q330.4115142824012 168.29342341443407 325.7901387812817 170.7982242705839Q321.16876328016224 173.3030251267337 318.5575004222992 178.41940087109833Q315.94623756443616 183.53577661546296 315.94623756443616 191.39090204262175ZM397.84299087547697 250.0V145.52947282791138H426.69623756443616V250.0ZM412.22686541111034 132.2978674183105Q405.2243561745563 132.2978674183105 400.54699951412476 127.90118289994425Q395.8696428536932 123.504498381578 395.8696428536932 116.99642310913825Q395.8696428536932 110.46108150549117 400.54699951412476 106.10749882525852Q405.2243561745563 101.75391614502587 412.19146927961333 101.75391614502587Q419.22429171684155 101.75391614502587 423.9091815528778 106.101848943555Q428.594071388914 110.44978174208413 428.594071388914 117.03049316630782Q428.594071388914 123.52798640822584 423.90435906406276 127.91292691326817Q419.21464673921145 132.2978674183105 412.22686541111034 132.2978674183105Z" fill="#FCFCFB"/>
    <g transform="translate(386.5 88.2) scale(1.89)"><polygon points="14,48 40,78 86,16 40,60 26,46" fill="#2BD18C"/></g>
    <path d="M592.5045086150494 252.29687547689537Q576.647536397606 252.29687547689537 564.9221990709993 245.40310168267752Q553.1968617443927 238.50932788845967 546.7953019145643 226.2329587339991Q540.393742084736 213.95658957953856 540.393742084736 197.95962429052452Q540.393742084736 181.9455132485018 546.8705011012862 169.64635443691805Q553.3472601178364 157.34719562533428 564.8484222892439 150.37496948243643Q576.3495844606514 143.40274333953857 591.4302744869492 143.40274333953857Q602.6541900635057 143.40274333953857 611.9535321593066 147.1778013108633Q621.2528742551076 150.952859282188 628.0484295487913 158.03890162660537Q634.843984842475 165.12494397102273 638.5518759492261 175.04216200049996Q642.2597670559771 184.95938002997718 642.2597670559771 197.25541877705837V205.112952590207H551.049088240281V186.72900021083478H628.3044407372945L615.1655648950982 191.20862972740724Q615.1655648950982 183.2432402374252 612.3802655939944 177.44692659398424Q609.5949662928906 171.6506129505433 604.4136947398802 168.49810892363166Q599.2324231868697 165.34560489672003 591.9282985930768 165.34560489672003Q584.7001281981211 165.34560489672003 579.4758864645264 168.50809234401822Q574.2516447309317 171.6705797913164 571.431403458475 177.406992912438Q568.6111621860182 183.1434060335596 568.6111621860182 190.91911053619697V203.5775470736553Q568.6111621860182 211.86998403100006 571.5489155654286 217.9594850542344Q574.486668944839 224.04898607746873 580.023086309986 227.33061379203718Q585.5595036751329 230.61224150660564 593.2644586569513 230.61224150660564Q598.7879580264707 230.61224150660564 603.1262202267972 229.01553857336694Q607.4644824271236 227.41883564012824 610.4296818380608 224.47423940920999Q613.394881248998 221.52964317829174 614.755355835543 217.52719688447542L641.0995821959223 218.6157698633906Q639.0338212258503 228.5847095252393 632.2645350700914 236.1620523930469Q625.4952489143325 243.7393952608545 615.2713371520367 248.01813536887494Q605.047425389741 252.29687547689537 592.5045086150494 252.29687547689537ZM650.698459625477 250.0V145.52947282791138H678.5794942382781V163.42915868735872H679.0617084506666Q681.9254251722159 153.93246662606543 688.2014833693975 149.2895471454176Q694.477541566579 144.64662766476977 704.4484434137703 144.64662766476977Q706.9458243856789 144.64662766476977 709.1702141176429 144.77336680902226Q711.3946038496069 144.90010595327476 713.1693180811853 145.0737196206319V169.95274400687777Q711.5272002234124 169.69905042642495 707.9180716885676 169.44915020467306Q704.3089431537228 169.19924998292117 700.7349435103097 169.19924998292117Q694.6754727372027 169.19924998292117 689.8570943481391 171.93601524850237Q685.0387159590755 174.67278051408357 682.2952111367558 179.91726011077844Q679.5517063144362 185.16173970747332 679.5517063144362 192.72709155120538V250.0ZM718.772678375477 250.0V145.52947282791138H747.6259250644362V250.0ZM733.1565529111103 132.2978674183105Q726.1540436745563 132.2978674183105 721.4766870141248 127.90118289994425Q716.7993303536932 123.504498381578 716.7993303536932 116.99642310913825Q716.7993303536932 110.46108150549117 721.4766870141248 106.10749882525852Q726.1540436745563 101.75391614502587 733.1211567796133 101.75391614502587Q740.1539792168415 101.75391614502587 744.8388690528777 106.101848943555Q749.523758888914 110.44978174208413 749.523758888914 117.03049316630782Q749.523758888914 123.52798640822584 744.8340465640626 127.91292691326817Q740.1443342392114 132.2978674183105 733.1565529111103 132.2978674183105ZM821.2692961709108 145.52947282791138V168.05822134047048H752.1417032480967V145.52947282791138ZM770.9494429834449 250.0V133.24283587899117Q770.9494429834449 123.16218280757312 774.8884530671858 116.44911217663321Q778.8274631509266 109.7360415456933 786.4039137969739 106.35454273215146Q793.9803644430212 102.97304391860962 804.8485220683942 102.97304391860962Q810.4016412512719 102.97304391860962 815.3170541541185 103.21849340198241Q820.2324670569651 103.46394288535521 822.2524014728406 103.64754271504353L821.0735498684953 126.129416704498Q819.705289127276 126.00918781790824 816.6720967311703 125.90241277248424Q813.6389043350646 125.79563772706024 811.2537078873429 125.79563772706024Q805.0080181373487 125.79563772706024 802.3936352741002 128.49878400611487Q799.7792524108518 131.2019302851695 799.7792524108518 137.23408210389607V250.0Z" fill="#FCFCFB"/>
  </g>
  </g>
  <text x="600" y="468" text-anchor="middle" font-family="'Inter','Segoe UI',sans-serif" font-size="30" fill="#FFFFFF" fill-opacity="0.82" letter-spacing="0.5">La conformit&#233; des contreparties, surveill&#233;e chaque jour</text>
  <text x="600" y="520" text-anchor="middle" font-family="'Inter','Segoe UI',sans-serif" font-size="22" fill="#2BD18C" letter-spacing="3" font-weight="600">ARCHIVERIF.CA</text>
</svg>
